<svg width="745" height="179" xmlns="http://www.w3.org/2000/svg">

 <g>
  <title>background</title>
  <rect fill="none" id="canvas_background" height="181" width="747" y="-1" x="-1"/>
 </g>
 <g>
  <title>Layer 1</title>
  <rect fill="#ffc72c" id="svg_5" height="77" width="77" class="st1" y="49.62" x="15.201717"/>
  <path id="svg_6" d="m92.201717,71.11c-3.1,-1.45 -7.07,-2.3 -12.05,-2.13c-5.62,0.19 -11.63,0.35 -17.66,0.48l5.59,-8.49c0,0 2.99,-4.58 10.79,-11.34c0.01,0 0.01,-0.01 0.02,-0.01l-23,0l-10.8,20.17c-9.96,0.16 -18.91,0.24 -24.96,0.27c-1.71,0.01 -3.35,0 -4.93,-0.03l0,13.22c3.81,-0.19 7.31,-0.4 11.45,-0.54c1.62,-0.05 6.08,-0.2 11.72,-0.39l-23.18,43.3l0,0.98l0.42,0l19.63,-30.22l-16.45,30.22l1.9,0l18.71,-27.75l-16.12,27.75l1.54,0l29.53,-44.82c11.8,-0.39 22.81,-0.76 22.81,-0.76c3.78,-0.13 7.44,5.03 2.92,9.86c-4.52,4.83 -16.82,14.87 -22.59,15.09c-5.5,0.21 -10.76,-3.12 -10.76,-3.12c2.91,3.62 7.26,5.4 10.25,5.73c4.9,0.53 10.41,-2.84 10.41,-2.84s0.55,-0.22 0.29,0.42c-0.61,1.54 -5.06,4.69 -10.45,4.64c-5.55,-0.05 -12.89,-5.29 -12.89,-5.29c3.53,4.46 8.05,7.16 12.61,8.04c7.02,1.36 12.82,-3.81 12.82,-3.81s0.35,0.53 -0.07,1c-2.97,3.32 -8.75,5.25 -12.58,4.9c-9.12,-0.82 -14.51,-7 -14.51,-7c2.72,5.88 11.5,9.18 15.01,10.07c5.42,1.38 10.54,-0.35 19.49,-6.62c5.26,-3.69 10.64,-8.61 15.09,-13.13l0,-27.85z"/>
  <path id="svg_7" d="m318.221717,106.49l-1.7,6.84l-0.05,0l-1.57,-6.84l-6.1,0l4.95,11.9l0,7.72l5.5,0l0,-7.72l4.95,-11.9l-5.98,0zm-22.92,4.62l3.74,0l0,15.01l5.5,0l0,-15.01l3.74,0l0,-4.62l-12.97,0l0,4.62l-0.01,0zm-123.85,-4.62l-7.28,0l0,19.62l5.5,0l0,-7.39l1.68,0c3.74,0 6.46,-1.76 6.46,-6.13c-0.01,-4.31 -2.15,-6.1 -6.36,-6.1zm-1.18,8.27l-0.6,0l0,-4.31l0.6,0c1.4,0 1.87,0.8 1.87,2.14c0,1.98 -0.85,2.17 -1.87,2.17zm-18.11,5.64l-0.05,0l-1.95,-13.91l-4.84,0l-1.73,13.91l-0.05,0l-1.29,-13.91l-5.33,0l3.22,19.62l5.99,0l1.57,-13.19l0.05,0l1.65,13.19l5.88,0l3.24,-19.62l-5.17,0l-1.19,13.91zm-35.83,-1.93l-0.06,0l-2.8,-11.98l-5.96,0l0,19.62l5,0l0,-12.09l0.05,0l3.05,12.09l5.88,0l0,-19.62l-5.17,0l0,11.98l0.01,0zm151.56,-11.98l-4.64,19.62l5.66,0l0.55,-3l3.68,0l0.6,3l5.66,0l-4.62,-19.62l-6.89,0zm2.14,12.34l1.26,-8.05l0.05,0l1.18,8.05l-2.49,0zm-140.92,-0.58l5.91,0l0,-4.29l-5.91,0l0,-3.02l6.32,0l0,-4.45l-11.82,0l0,19.62l12.06,0l0,-4.45l-6.57,0l0,-3.41l0.01,0zm57.02,-12.14c-7.06,0 -7.06,4.12 -7.06,10.2c0,6.27 0,10.2 7.06,10.2c7.06,0 7.06,-3.93 7.06,-10.2c0,-6.08 0,-10.2 -7.06,-10.2zm0,16.76c-1.18,0 -1.4,-0.82 -1.4,-6.57c0,-5.74 0.22,-6.57 1.4,-6.57c1.18,0 1.4,0.82 1.4,6.57c0,5.75 -0.22,6.57 -1.4,6.57zm72,-16.38l-7.28,0l0,19.62l5.5,0l0,-7.39l1.68,0c3.74,0 6.46,-1.76 6.46,-6.13c-0.01,-4.31 -2.16,-6.1 -6.36,-6.1zm-1.18,8.27l-0.61,0l0,-4.31l0.61,0c1.4,0 1.87,0.8 1.87,2.14c0,1.98 -0.86,2.17 -1.87,2.17zm-35,3.49l5.91,0l0,-4.29l-5.91,0l0,-3.02l6.32,0l0,-4.45l-11.82,0l0,19.62l12.07,0l0,-4.45l-6.57,0l0,-3.41zm-13.03,2.15l-0.05,0l-1.95,-13.91l-4.84,0l-1.73,13.91l-0.05,0l-1.29,-13.91l-5.33,0l3.22,19.62l5.99,0l1.57,-13.19l0.05,0l1.65,13.19l5.88,0l3.24,-19.62l-5.17,0l-1.19,13.91zm34.93,-8.77c0,-3.3 -1.59,-5.14 -5.41,-5.14l-8.24,0l0,19.62l5.5,0l0,-7.72l1.02,0c0.96,0 1.6,0.3 1.6,1.98c0,0.96 0.08,5.68 0.08,5.68l5.44,0l-0.03,-4.71c0,-1.18 0,-2.47 -0.52,-3.35c-0.52,-0.96 -1.6,-1.48 -2.7,-1.57l0,-0.05c1.89,-0.31 3.26,-1.61 3.26,-4.74zm-7.36,3.13l-0.8,0l0,-4.31l0.63,0c1.24,0 2.03,0.38 2.03,2.01c0.01,1.89 -0.95,2.3 -1.86,2.3zm57.61,-3.13c0,-3.3 -1.59,-5.14 -5.41,-5.14l-8.25,0l0,19.62l5.5,0l0,-7.72l1.02,0c0.96,0 1.6,0.3 1.6,1.98c0,0.96 0.08,5.68 0.08,5.68l5.44,0l-0.02,-4.71c0,-1.18 0,-2.47 -0.52,-3.35c-0.52,-0.96 -1.6,-1.48 -2.7,-1.57l0,-0.05c1.88,-0.31 3.26,-1.61 3.26,-4.74zm-7.37,3.13l-0.8,0l0,-4.31l0.63,0c1.24,0 2.03,0.38 2.03,2.01c0.01,1.89 -0.95,2.3 -1.86,2.3z"/>
  <path id="svg_10" d="m245.941717,61.13c6.37,0 11.42,0 11.42,0l0,31.92l-13.72,0l0,5.41l24,0l0,-42.63l-19.26,0l2.91,-6.33l-12.9,0l-2.3,6.33l-15.6,0l0,5.3l13.67,0l-13.09,36.17l5.72,-11.49l-5.02,13.39l6.66,-12.65l-5.92,14.17l6.38,-12.54l-3.89,11.09l6.32,-13.24l-4.73,13.18l6.56,-12.36l-4.29,11.71l17.08,-37.43z"/>
  <path id="svg_11" d="m305.101717,93.05l0,-2.22c0,0 16.04,0 16.37,0l0,-4.06c-0.33,0 -16.37,0 -16.37,0l0,-2.06c0,0 16.04,0 16.37,0l0,-13.55l-43.39,0l0,13.55c0.33,0 16.37,0 16.37,0l0,2.06c0,0 -16.04,0 -16.37,0l0,4.06c0.33,0 16.37,0 16.37,0l0,2.22c0,0 -17.8,0 -18.98,0l0,5.41l48.61,0l0,-5.41c-1.18,0 -18.98,0 -18.98,0zm0,-18.36l6.86,0l0,1.84l-6.86,0l0,-1.84zm0,4.59l6.86,0l0,1.9l-6.86,0l0,-1.9zm-10.65,1.9l-6.86,0l0,-1.9l6.86,0l0,1.9zm0,-4.65l-6.86,0l0,-1.84l6.86,0l0,1.84zm27.23,-27.03l-43.82,0l0,14.28l43.82,0l0,-14.28zm-9.61,10.42l-24.59,0l0,-1.84l24.59,0l0,1.84zm0,-4.65l-24.59,0l0,-1.84l24.59,0l0,1.84zm11.86,9.88l-48.31,0l0,4.6l48.31,0l0,-4.6z"/>
  <path id="svg_13" d="m211.551717,61.14l-2.62,-11.64l-9.52,0l2.62,11.64l9.52,0zm1.1,4.04l-14.71,0c-1.71,-8.03 -3.1,-14.57 -3.34,-15.68l-10.72,0c0.24,1.11 1.57,7.41 3.32,15.68l-11.42,0c1.67,-5.3 4.57,-14.5 4.94,-15.68l-10.6,0c-0.48,1.52 -5.14,16.48 -6.44,20.66l2.74,0l-0.03,28.31l10.07,0l0,-28.33l11.8,0c1.97,9.26 4.34,20.29 6.07,28.32l17.66,0l0,-5.42l-8.11,0c-1.18,-5.56 -3.1,-14.55 -4.88,-22.91l13.65,0l0,-4.95z"/>
  <path id="svg_14" d="m136.771717,79.49l-9.52,0l2.56,11.37l9.52,0l-2.56,-11.37zm15.71,-7.73l0,-4.07l3.18,0l0,-4.8l-9.71,0l0,-4.12l9.71,0l0,-4.64l-9.84,0l0,-4.63l-10.14,0l0,4.63c0,0 -6.31,0 -9.14,0l0,4.64l9.14,0l0,4.12l-9.14,0l0,4.8l15.66,0l0,4.07l-15.57,0l0,5.56l15.57,0l0,15.73c0,0 -4.62,0 -11.91,0l0,5.41l22.19,0l0,-21.14l3.34,0l0,-5.56l-3.34,0zm-44.96,25.04l17.37,0l0,-45.28l-17.37,0l0,45.28zm7.4,-40.26l2.67,0l0,15.22l-2.67,0l0,-15.22zm0,20.78l2.67,0l0,14.61l-2.67,0l0,-14.61z"/>
  <path id="svg_16" d="m339.901717,108.76l72.52,0l0,11.53l-72.52,0l0,-11.53zm70.14,-47.79l0,11.3l-67.62,0l0,-11.3l27.49,0l0,-12.88l14.53,0.79c-0.08,0.87 -0.79,1.42 -2.45,1.74l0,10.35l28.05,0zm-47.15,13.43c3,9.48 5.21,21.33 5.85,29.46l-12.01,3.08c-0.16,-7.98 -2.29,-20.3 -4.9,-29.62l11.06,-2.92zm40.76,3.23c-0.32,0.79 -1.34,1.34 -2.76,1.42c-2.05,9.56 -6.08,21.25 -9.48,28.99l-10.74,-3.24c3.16,-8.37 6.24,-20.85 7.66,-30.73l15.32,3.56z"/>
  <path id="svg_17" d="m423.321717,69.42c4.98,1.74 11.69,4.9 15.09,7.5l-6.4,9.56c-3,-2.69 -9.56,-6.32 -14.61,-8.37l5.92,-8.69zm-4.03,45.26c3.87,-5.92 9.4,-15.4 13.82,-24.65l8.69,7.35c-3.71,8.14 -7.82,16.12 -11.45,22.28c0.39,0.55 0.55,1.11 0.55,1.66s-0.16,1.03 -0.47,1.5l-11.14,-8.14zm9.09,-66.43c4.98,1.9 11.61,5.29 14.93,8.06l-6.71,9.32c-3,-2.84 -9.48,-6.71 -14.54,-8.93l6.32,-8.45zm49.84,45.66c5.77,7.03 12.09,16.35 14.46,23.22l-10.98,6c-0.55,-1.82 -1.34,-3.79 -2.37,-6c-12.4,1.18 -25.04,2.21 -33.57,2.84c-0.24,0.79 -0.95,1.26 -1.66,1.34l-4.03,-12.64l5.37,-0.24c2.53,-5.53 5.06,-12.48 6.71,-18.64l-12.09,0l0,-10.89l19.67,0l0,-9.4l-15.72,0l0,-10.9l15.72,0l0,-10.51l14.46,0.87c-0.08,0.87 -0.87,1.9 -2.53,2.21l0,7.43l16.51,0l0,10.9l-16.51,0l0,9.4l20.7,0l0,10.9l-29.47,0l4.11,1.26c-0.32,0.71 -1.26,1.18 -2.61,1.18c-1.58,4.9 -4.03,10.51 -6.48,15.64c5.06,-0.32 10.43,-0.55 15.72,-0.87c-1.74,-2.76 -3.55,-5.45 -5.37,-7.82l9.96,-5.28z"/>
  <path id="svg_18" d="m524.831717,74.4l0,-15.33c-1.5,5.92 -3.48,12.96 -5.21,18.25c4.58,5.85 6.16,10.35 6.16,14.93c0,13.27 -8.37,13.27 -14.14,13.27c0,-2.53 -0.87,-6.24 -1.9,-8.69l0,26.38l-9.95,0l0,-71.72l17.69,0l1.66,-0.32l7.11,3.48c-0.08,0.55 -0.39,1.11 -0.71,1.42l-0.24,1.03l16.35,0l0,-9.01l13.43,0.71c-0.08,0.87 -0.71,1.42 -2.29,1.66l0,6.64l18.09,0l0,17.3l-5.92,0l0,6.87l-34.52,0l0,-6.87l-5.61,0zm-15.08,-12.72l0,34.44c0.95,0.08 1.9,0.08 2.61,0.08c2.05,0 3.16,-0.71 3.16,-5.06c0,-3.24 -1.5,-7.66 -5.45,-12.56c1.26,-4.66 2.61,-11.45 3.63,-16.91l-3.95,0l0,0.01zm49.61,47.16c0,2.53 0.08,2.76 0.79,2.76l1.19,0c0.95,0 1.18,-1.11 1.34,-8.53c2.05,1.74 6.56,3.48 9.48,4.27c-1.03,11.14 -3.63,14.3 -9.64,14.3l-4.42,0c-7.82,0 -9.48,-3.24 -9.48,-12.72l0,-13.28l-4.11,0c-0.95,12.88 -3.71,22.12 -19.99,27.33c-1.03,-2.69 -3.79,-6.87 -6,-9.01c12.17,-3.4 14.61,-8.85 15.33,-18.33l-7.82,0l0,-10.17l44.47,0l0,10.19l-11.14,0l0,13.19zm0.94,-42.11l-25.36,0l0,4.74l25.36,0l0,-4.74z"/>
  <path id="svg_19" d="m648.701717,109.86l-61.54,0l9.64,2.84c-2.37,3.95 -6.16,7.9 -9.87,10.43l-10.43,-4.35c3.4,-1.82 7.11,-5.29 9.4,-8.93l-8.37,0l0,-6.48l29.46,0l0,-1.82l-23.94,0l0,-6l23.94,0l0,-1.82l-21.64,0l0,-17.36l56.72,0l0,17.38l-23.94,0l0,1.82l26.46,0l0,6l-26.46,0l0,1.82l30.57,0l0,6.47zm-59.16,-48.18l0,7.11l-10.74,0l0,-13.99l11.3,0c-0.71,-1.66 -1.66,-3.4 -2.53,-4.82l10.82,-1.82c1.34,1.97 2.92,4.5 3.87,6.64l4.74,0l0,-6.79l14.22,0.71c-0.08,0.95 -0.79,1.5 -2.45,1.74l0,4.34l5.06,0c1.5,-2.13 3.08,-4.66 4.03,-6.71l13.03,2.92c-0.24,0.63 -0.95,0.95 -2.21,0.95c-0.63,0.87 -1.34,1.9 -2.13,2.84l10.98,0l0,13.98l-11.3,0l0,-7.11l-46.69,0l0,0.01zm44.71,12.87l-42.5,0l0,-11.06l42.5,0l0,11.06zm-31.68,14.06l4.42,0l0,-7.19l-11.21,0l0,7.19l3.48,0c-0.55,-1.34 -1.42,-2.92 -2.21,-4.11l6.16,-2.92c1.18,1.5 2.53,3.71 3,5.13l-3.64,1.9zm-2.13,33.89c-0.08,-2.53 -0.55,-6.71 -1.19,-9.87l10.43,-0.79c0.79,3.08 1.58,7.11 1.74,9.64l-10.98,1.02zm1.58,-54.58l0,2.21l21.41,0l0,-2.21l-21.41,0zm15.56,54.19c-0.39,-2.37 -1.58,-6.4 -2.76,-9.32l10.82,-1.34c1.26,2.84 2.76,6.63 3.32,9.08l-11.38,1.58zm13.35,-40.68l-12.8,0l0,7.19l3.95,0l-3.4,-1.66c1.18,-1.66 2.76,-4.03 3.55,-5.53l7.82,3.24c-0.32,0.47 -0.95,0.71 -1.9,0.71c-0.95,0.79 -2.37,2.13 -3.63,3.24l6.4,0l0,-7.19l0.01,0zm7.27,41.94c-1.66,-2.84 -5.69,-7.43 -8.93,-10.58l10.98,-2.84c3.24,3 7.5,7.27 9.72,10.35l-11.77,3.07z"/>
  <path id="svg_20" d="m657.791717,50.46l68.96,0l0,72.68l-11.14,0l0,-2.53l-47.23,0l0,2.53l-10.58,0l0,-72.68l-0.01,0zm10.59,60.83l47.24,0l0,-51.5l-47.24,0l0,51.5zm36.57,-18.17c-0.24,0.39 -0.71,0.63 -1.66,0.79l0,1.58l9.79,0l0,5.85l-9.79,0c0,6.4 0,9.24 -11.69,9c-0.71,-2.13 -2.21,-4.9 -3.24,-6.56c1.74,0.08 3.95,0.08 4.58,0.08c1.03,0 1.03,-0.24 1.03,-2.53l-9.32,0c1.42,1.74 2.76,3.63 3.48,5.06l-7.58,3.63c-0.79,-1.9 -2.76,-4.9 -4.5,-7.03l3.63,-1.66l-9.24,0l0,-5.85l23.54,0l0,-2.05c-8.06,0.24 -15.56,0.4 -21.09,0.47c-0.16,0.63 -0.63,0.95 -1.18,1.03l-1.9,-6.63c4.74,0 10.74,0.08 17.3,0.08l0,-1.66l-13.51,0l0,-15.96l13.51,0l0,-1.58l-16.67,0l0,-5.85l16.67,0l0,-2.69l11.3,0.63c-0.08,0.79 -0.63,1.26 -2.05,1.5l0,0.55l16.75,0l0,5.85l-16.75,0l0,1.58l13.51,0l0,15.65c2.05,1.74 4.03,3.63 5.13,5.13l-6.4,3.63c-0.47,-0.63 -1.03,-1.34 -1.74,-2.05l-1.91,0l0,0.01zm-22.75,-18.17l0,1.74l4.9,0l0,-1.74l-4.9,0zm0,7.58l4.9,0l0,-1.82l-4.9,0l0,1.82zm18.65,-7.58l-4.5,0l0,1.74l4.5,0l0,-1.74zm0,7.58l0,-1.82l-4.5,0l0,1.82l4.5,0zm0,4.19l-4.5,0l0,1.66l5.69,-0.08c-0.55,-0.47 -1.11,-0.95 -1.66,-1.34l0.47,-0.24z"/>
 </g>
</svg>