<?xml version="1.0" encoding="utf-8"?>
<!-- Generator: Adobe Illustrator 22.0.1, SVG Export Plug-In . SVG Version: 6.00 Build 0)  -->
<svg xmlns="http://www.w3.org/2000/svg" xmlns:xlink="http://www.w3.org/1999/xlink" version="1.1" id="Capa_1" x="0px" y="0px" viewBox="0 0 508.5 508.5" style="enable-background:new 0 0 508.5 508.5;" xml:space="preserve" width="508.5" height="508.5">
<style type="text/css">
	.st0{fill:#C0C0CC;}
</style>
<g>
	<g>
		<path class="st0" d="M254.3,0C113.8,0,0,113.8,0,254.3s113.8,254.3,254.3,254.3s254.3-113.8,254.3-254.3    C508.5,113.8,394.7,0,254.3,0z M307.1,311.9c7.9-5.9,17.6-9.5,28.3-9.5c25.9,0,47,21,47,47c0,25.9-21,47-47,47    c-25.9,0-46.9-21-46.9-47l0,0l-119.8-57.9c-7.3,4.7-16.1,7.5-25.4,7.5c-25.9,0-47-21-47-47s21-47,47-47c11.1,0,21.2,3.8,29.2,10.2    l115.9-56l0,0c0-25.9,21-47,46.9-47s47,21,47,47s-21,47-47,47c-10.6,0-20.4-3.6-28.3-9.5l-117,56.5l-0.1,2.1L307.1,311.9z"/>
	</g>
</g>
</svg>
